<svg width="44" height="42" viewBox="0 0 44 42" fill="none" xmlns="http://www.w3.org/2000/svg">
<ellipse cx="21.9373" cy="21.1702" rx="19.9373" ry="19.1702" stroke="#03B5AA" stroke-width="3"/>
<path d="M32.5417 19.1667H23.8333V10.4583C23.8333 10.2062 23.6271 10 23.375 10H20.625C20.3729 10 20.1667 10.2062 20.1667 10.4583V19.1667H11.4583C11.2062 19.1667 11 19.3729 11 19.625V22.375C11 22.6271 11.2062 22.8333 11.4583 22.8333H20.1667V31.5417C20.1667 31.7938 20.3729 32 20.625 32H23.375C23.6271 32 23.8333 31.7938 23.8333 31.5417V22.8333H32.5417C32.7938 22.8333 33 22.6271 33 22.375V19.625C33 19.3729 32.7938 19.1667 32.5417 19.1667Z" fill="#03B5AA"/>
</svg>
