<svg width="59" height="59" viewBox="0 0 59 59" fill="none" xmlns="http://www.w3.org/2000/svg">
<path d="M29.5 0C45.7929 0 59 13.2072 59 29.5C59 45.7929 45.7929 59 29.5 59C13.2072 59 0 45.7929 0 29.5C0 13.2072 13.2072 0 29.5 0ZM29.5 5.9C23.2409 5.9 17.2381 8.38642 12.8123 12.8123C8.38642 17.2381 5.9 23.2409 5.9 29.5C5.9 35.7591 8.38642 41.7619 12.8123 46.1877C17.2381 50.6136 23.2409 53.1 29.5 53.1C35.7591 53.1 41.7619 50.6136 46.1877 46.1877C50.6136 41.7619 53.1 35.7591 53.1 29.5C53.1 23.2409 50.6136 17.2381 46.1877 12.8123C41.7619 8.38642 35.7591 5.9 29.5 5.9ZM29.5 14.75C32.6051 14.7512 35.6307 15.7323 38.1456 17.5535C40.6606 19.3747 42.5366 21.9432 43.5065 24.893C44.4763 27.8428 44.4905 31.0234 43.547 33.9817C42.6036 36.94 40.7505 39.5251 38.252 41.3688C35.7534 43.2124 32.7367 44.2205 29.6317 44.2494C26.5267 44.2783 23.4918 43.3265 20.9593 41.5298C18.4269 39.733 16.526 37.1828 15.5276 34.2426C14.5292 31.3023 14.4842 28.122 15.399 25.1547C16.0891 26.6967 17.2878 27.9549 18.7946 28.7187C20.3014 29.4826 22.0249 29.7058 23.6765 29.3509C25.3282 28.996 26.8079 28.0847 27.868 26.7693C28.9281 25.4539 29.5042 23.8144 29.5 22.125C29.5004 20.7045 29.0905 19.3141 28.3197 18.1209C27.5488 16.9277 26.4498 15.9826 25.1547 15.399C26.5627 14.9674 28.0273 14.7486 29.5 14.75Z" fill="#03B5AA"/>
</svg>
