<svg width="45" height="45" viewBox="0 0 45 45" fill="none" xmlns="http://www.w3.org/2000/svg">
<path d="M9.51923 0C10.2078 1.451e-08 10.8681 0.273522 11.355 0.760396C11.8419 1.24727 12.1154 1.90761 12.1154 2.59615C12.1154 3.2847 11.8419 3.94504 11.355 4.43191C10.8681 4.91879 10.2078 5.19231 9.51923 5.19231C7.13077 5.19231 5.19231 7.13077 5.19231 9.51923C5.19231 10.2078 4.91879 10.8681 4.43191 11.355C3.94504 11.8419 3.2847 12.1154 2.59615 12.1154C1.90761 12.1154 1.24727 11.8419 0.760396 11.355C0.273522 10.8681 1.451e-08 10.2078 0 9.51923C0 6.99457 1.00292 4.57332 2.78812 2.78812C4.57332 1.00292 6.99457 0 9.51923 0ZM25.9615 2.59615C25.9615 1.90761 25.688 1.24727 25.2011 0.760396C24.7143 0.273522 24.0539 0 23.3654 0H18.1731C17.4845 1.451e-08 16.8242 0.273522 16.3373 0.760396C15.8504 1.24727 15.5769 1.90761 15.5769 2.59615C15.5769 3.2847 15.8504 3.94504 16.3373 4.43191C16.8242 4.91879 17.4845 5.19231 18.1731 5.19231H23.3654C24.0539 5.19231 24.7143 4.91879 25.2011 4.43191C25.688 3.94504 25.9615 3.2847 25.9615 2.59615ZM29.4231 2.59615C29.4231 4.02923 30.5862 5.19231 32.0192 5.19231C34.4077 5.19231 36.3462 7.13077 36.3462 9.51923C36.3462 10.2078 36.6197 10.8681 37.1066 11.355C37.5934 11.8419 38.2538 12.1154 38.9423 12.1154C39.6309 12.1154 40.2912 11.8419 40.7781 11.355C41.2649 10.8681 41.5385 10.2078 41.5385 9.51923C41.5385 6.99457 40.5355 4.57332 38.7503 2.78812C36.9651 1.00292 34.5439 0 32.0192 0C31.3307 0 30.6703 0.273522 30.1835 0.760396C29.6966 1.24727 29.4231 1.90761 29.4231 2.59615ZM9.51923 36.3462C10.2078 36.3462 10.8681 36.6197 11.355 37.1066C11.8419 37.5934 12.1154 38.2538 12.1154 38.9423C12.1154 39.6309 11.8419 40.2912 11.355 40.7781C10.8681 41.2649 10.2078 41.5385 9.51923 41.5385C6.99457 41.5385 4.57332 40.5355 2.78812 38.7503C1.00292 36.9651 0 34.5439 0 32.0192C1.451e-08 31.3307 0.273522 30.6703 0.760396 30.1835C1.24727 29.6966 1.90761 29.4231 2.59615 29.4231C3.2847 29.4231 3.94504 29.6966 4.43191 30.1835C4.91879 30.6703 5.19231 31.3307 5.19231 32.0192C5.19231 34.4077 7.13077 36.3462 9.51923 36.3462ZM2.59615 25.9615C3.2847 25.9615 3.94504 25.688 4.43191 25.2011C4.91879 24.7143 5.19231 24.0539 5.19231 23.3654V18.1731C5.19231 17.4845 4.91879 16.8242 4.43191 16.3373C3.94504 15.8504 3.2847 15.5769 2.59615 15.5769C1.90761 15.5769 1.24727 15.8504 0.760396 16.3373C0.273522 16.8242 1.451e-08 17.4845 0 18.1731V23.3654C0 24.7985 1.16308 25.9615 2.59615 25.9615ZM29.4231 45C31.4687 45 33.4942 44.5971 35.3841 43.8143C37.274 43.0315 38.9912 41.8841 40.4376 40.4376C41.8841 38.9912 43.0315 37.274 43.8143 35.3841C44.5971 33.4942 45 31.4687 45 29.4231C45 27.3775 44.5971 25.3519 43.8143 23.462C43.0315 21.5722 41.8841 19.855 40.4376 18.4085C38.9912 16.9621 37.274 15.8147 35.3841 15.0319C33.4942 14.2491 31.4687 13.8462 29.4231 13.8462C25.2918 13.8462 21.3298 15.4873 18.4085 18.4085C15.4873 21.3298 13.8462 25.2918 13.8462 29.4231C13.8462 33.5543 15.4873 37.5164 18.4085 40.4376C21.3298 43.3589 25.2918 45 29.4231 45ZM23.8708 20.4092C24.0317 20.2483 24.2227 20.1207 24.433 20.0336C24.6432 19.9465 24.8686 19.9017 25.0962 19.9017C25.3237 19.9017 25.5491 19.9465 25.7593 20.0336C25.9696 20.1207 26.1606 20.2483 26.3215 20.4092C26.4825 20.5702 26.6101 20.7612 26.6972 20.9714C26.7843 21.1817 26.8291 21.407 26.8291 21.6346C26.8291 21.8622 26.7843 22.0875 26.6972 22.2978C26.6101 22.508 26.4825 22.6991 26.3215 22.86L23.2165 25.9615H28.5577C31.0824 25.9615 33.5036 26.9645 35.2888 28.7497C37.074 30.5349 38.0769 32.9561 38.0769 35.4808V36.3462C38.0769 36.8052 37.8946 37.2454 37.57 37.57C37.2454 37.8946 36.8052 38.0769 36.3462 38.0769C35.8871 38.0769 35.4469 37.8946 35.1223 37.57C34.7977 37.2454 34.6154 36.8052 34.6154 36.3462V35.4808C34.6154 33.8742 33.9772 32.3334 32.8411 31.1973C31.7051 30.0613 30.1643 29.4231 28.5577 29.4231H23.2165L26.3215 32.5246C26.6465 32.8496 26.8291 33.2904 26.8291 33.75C26.8291 34.2096 26.6465 34.6504 26.3215 34.9754C25.9965 35.3004 25.5558 35.483 25.0962 35.483C24.6365 35.483 24.1958 35.3004 23.8708 34.9754L17.8062 28.9038C17.6462 28.7433 17.5194 28.5527 17.4331 28.3431C17.3469 28.1335 17.3028 27.9089 17.3035 27.6822C17.3041 27.4555 17.3494 27.2312 17.4369 27.0221C17.5243 26.813 17.6522 26.6231 17.8131 26.4635L23.8708 20.4058V20.4092Z" fill="#F5F5F5"/>
</svg>
