<svg width="42" height="36" viewBox="0 0 42 36" fill="none" xmlns="http://www.w3.org/2000/svg">
<path d="M20.0156 3.43283L20.9262 4.4172L21.9105 3.43447C24.6586 0.756145 28.4648 -0.462839 32.2055 0.159778C37.8574 1.1015 42 5.9922 42 11.7262V12.202C42 15.6063 40.5891 18.8629 38.0953 21.1844L23.2723 35.0231C22.657 35.5973 21.8449 35.9172 21 35.9172C20.1551 35.9172 19.343 35.5973 18.7277 35.0231L3.90387 21.1844C1.4134 18.8629 0 15.6063 0 12.202V11.7262C0 5.9922 4.14422 1.1015 9.79453 0.159778C13.4613 -0.462839 17.3414 0.756145 20.0156 3.43283C19.9418 3.43283 20.0156 3.43365 20.0156 3.43283ZM20.9262 9.98712L17.2348 6.14806C15.4547 4.44017 12.9281 3.6297 10.4426 4.04314C6.68965 4.66904 3.9375 7.91994 3.9375 11.7262V12.202C3.9375 14.5152 4.89809 16.7301 6.59039 18.3051L21 31.7582L35.4129 18.3051C37.1027 16.7301 38.0625 14.5152 38.0625 12.202V11.7262C38.0625 7.91994 35.3063 4.66904 31.5574 4.04314C29.0719 3.6297 26.5453 4.44017 24.7652 6.14806L20.9262 9.98712Z" fill="#CCFF66"/>
</svg>
