<svg width="8" height="39" viewBox="0 0 8 39" fill="none" xmlns="http://www.w3.org/2000/svg">
<path d="M0.0200005 3.8996C-0.0358276 3.40661 0.025536 2.90873 0.200134 2.43805C0.374733 1.96738 0.658689 1.53436 1.03369 1.16694C1.40869 0.799513 1.86641 0.505834 2.37733 0.30484C2.88825 0.103846 3.44102 0 4 0C4.55898 0 5.11175 0.103846 5.62267 0.30484C6.13359 0.505834 6.59131 0.799513 6.96631 1.16694C7.34131 1.53436 7.62527 1.96738 7.79987 2.43805C7.97446 2.90873 8.03583 3.40661 7.98 3.8996L6.428 26.4135C6.36804 26.9474 6.08636 27.4424 5.63766 27.8025C5.18896 28.1626 4.60528 28.362 4 28.362C3.39472 28.362 2.81104 28.1626 2.36234 27.8025C1.91364 27.4424 1.63196 26.9474 1.572 26.4135L0.0200005 3.8996ZM0 35.4545C0 34.5142 0.421428 33.6124 1.17157 32.9475C1.92172 32.2826 2.93913 31.909 4 31.909C5.06087 31.909 6.07828 32.2826 6.82843 32.9475C7.57857 33.6124 8 34.5142 8 35.4545C8 36.3948 7.57857 37.2966 6.82843 37.9615C6.07828 38.6265 5.06087 39 4 39C2.93913 39 1.92172 38.6265 1.17157 37.9615C0.421428 37.2966 0 36.3948 0 35.4545Z" fill="#FF6666"/>
</svg>
