<svg width="139" height="193" viewBox="0 0 139 193" fill="none" xmlns="http://www.w3.org/2000/svg">
<circle cx="68.5141" cy="133.874" r="53" transform="rotate(83.9883 68.5141 133.874)" fill="url(#paint0_linear_207_2)" stroke="#03B5AA" stroke-width="5"/>
<path d="M65.2935 3.92744C44.6967 6.09651 29.7815 24.7745 31.9795 45.6459C34.1775 66.5173 52.6563 81.6785 73.2531 79.5095C93.8499 77.3404 108.765 58.6624 106.567 37.791C104.369 16.9196 85.8903 1.75837 65.2935 3.92744Z" fill="#03B5AA" stroke="url(#paint1_linear_207_2)" stroke-width="5"/>
<path d="M73.2405 72.298C71.2271 73.78 71.2273 73.7803 71.2277 73.7809L71.2296 73.7834L71.2367 73.793L71.2646 73.831L71.3745 73.9801C71.4246 74.0481 71.4872 74.1329 71.5619 74.2341C71.6317 74.3287 71.712 74.4375 71.8025 74.5601C72.1773 75.0675 72.7269 75.8108 73.4271 76.7552C74.8274 78.6441 76.83 81.3376 79.2403 84.5578C84.06 90.9971 90.5134 99.5472 97.0421 107.982C103.565 116.409 110.186 124.751 115.334 130.76C117.898 133.753 120.15 136.23 121.865 137.855C122.699 138.645 123.53 139.354 124.279 139.801C124.624 140.007 125.195 140.31 125.884 140.393C126.259 140.439 126.778 140.433 127.332 140.21C127.866 139.996 128.29 139.636 128.587 139.208C129.05 138.564 129.165 137.875 129.195 137.433C129.229 136.936 129.176 136.446 129.101 136.02C128.95 135.162 128.64 134.173 128.253 133.135C127.468 131.036 126.209 128.33 124.664 125.28C121.563 119.161 117.173 111.388 112.715 103.773C108.253 96.1478 103.701 88.643 100.267 83.0468C98.5499 80.248 97.1109 77.9252 96.101 76.3015C95.8604 75.9147 95.6442 75.5675 95.4543 75.2631C95.8052 74.8226 96.225 74.2918 96.6946 73.6903C98.0965 71.895 99.9529 69.4584 101.755 66.9113C103.545 64.3807 105.331 61.6712 106.558 59.3459C107.165 58.1935 107.691 57.0336 107.992 55.9789C108.142 55.4501 108.262 54.8623 108.274 54.2629C108.285 53.6735 108.196 52.9036 107.762 52.1678C107.029 50.9265 105.774 50.6563 105.048 50.6226C104.316 50.5885 103.582 50.7467 102.973 50.924C101.718 51.2893 100.198 51.9791 98.5996 52.8064C95.361 54.483 91.2893 56.997 87.3466 59.5658C83.3879 62.1451 79.4957 64.8215 76.5971 66.85C75.1467 67.8651 73.9427 68.7196 73.1005 69.321C72.6794 69.6216 72.3487 69.8591 72.1227 70.0217C72.0827 70.0505 72.046 70.077 72.0126 70.101C71.9517 70.1449 71.9021 70.1807 71.8641 70.2082L71.7971 70.2566L71.7797 70.2692L71.7752 70.2725L71.7739 70.2734C71.7736 70.2736 71.7734 70.2738 73.2405 72.298ZM73.2405 72.298L71.2271 73.78L69.7341 71.7517L71.7734 70.2738L73.2405 72.298ZM126.904 135.542C126.904 135.542 126.896 135.539 126.879 135.529C126.895 135.537 126.904 135.541 126.904 135.542Z" fill="#03B5AA" stroke="url(#paint2_linear_207_2)" stroke-width="5"/>
<path d="M62.8068 72.1146C64.8146 73.6042 64.8143 73.6045 64.8139 73.6051L64.8121 73.6075L64.8051 73.6169L64.7776 73.654L64.6694 73.7997C64.6315 73.8506 64.5865 73.9112 64.5344 73.9812C64.455 74.088 64.3593 74.2166 64.248 74.3662C63.879 74.8619 63.3378 75.5881 62.6485 76.5106C61.2698 78.3556 59.2983 80.9866 56.9256 84.1317C52.1811 90.4209 45.8293 98.7708 39.4058 107.005C32.9886 115.232 26.4759 123.374 21.417 129.233C18.8982 132.15 16.6858 134.565 15.0017 136.146C14.1846 136.913 13.3648 137.607 12.6236 138.043C12.284 138.242 11.7087 138.543 11.0125 138.617C10.631 138.657 10.1069 138.641 9.55344 138.403C9.02146 138.174 8.6097 137.802 8.32695 137.374C7.88679 136.73 7.78448 136.05 7.76033 135.617C7.73306 135.128 7.7899 134.646 7.86746 134.226C8.02318 133.381 8.33481 132.408 8.72283 131.387C9.50731 129.322 10.7589 126.665 12.2912 123.674C15.3664 117.671 19.7108 110.054 24.1175 102.595C28.5296 95.1262 33.0263 87.7778 36.4184 82.2991C38.1148 79.559 39.536 77.2851 40.5333 75.6957C40.7719 75.3154 40.9862 74.9743 41.1743 74.6754C40.838 74.2317 40.4351 73.6962 39.9841 73.089C38.6462 71.288 36.8754 68.8445 35.1588 66.2926C33.4533 63.7572 31.7538 61.0451 30.5921 58.7232C30.0163 57.5723 29.5212 56.4168 29.2427 55.3703C29.1031 54.8457 28.9948 54.2646 28.9901 53.6745C28.9855 53.0964 29.0792 52.3368 29.5114 51.6117C30.2511 50.3704 31.5102 50.1103 32.2445 50.0886C32.9756 50.0669 33.6993 50.2409 34.2909 50.428C35.5123 50.8142 36.9839 51.5267 38.5237 52.3735C41.646 54.0904 45.5648 56.6504 49.3558 59.2609C53.1629 61.8823 56.9042 64.5987 59.6898 66.6565C61.0837 67.6862 62.2407 68.5528 63.0499 69.1625C63.4546 69.4674 63.7724 69.7082 63.9896 69.8731C64.0982 69.9555 64.1816 70.019 64.2381 70.0621L64.3025 70.1112L64.3192 70.124L64.3236 70.1273L64.3248 70.1282C64.3251 70.1285 64.3253 70.1286 62.8068 72.1146ZM62.8068 72.1146L64.8146 73.6042L66.2827 71.6253L64.3253 70.1286L62.8068 72.1146ZM10.0354 133.761C10.0352 133.762 10.0438 133.758 10.0619 133.748C10.0446 133.756 10.0356 133.761 10.0354 133.761Z" fill="#03B5AA" stroke="url(#paint3_linear_207_2)" stroke-width="5"/>
<defs>
<linearGradient id="paint0_linear_207_2" x1="68.5141" y1="80.8741" x2="68.5141" y2="186.874" gradientUnits="userSpaceOnUse">
<stop stop-color="#03B5AA"/>
<stop offset="1" stop-color="#C24EDF"/>
</linearGradient>
<linearGradient id="paint1_linear_207_2" x1="106.567" y1="37.791" x2="31.9795" y2="45.6459" gradientUnits="userSpaceOnUse">
<stop stop-color="#03B5AA"/>
<stop offset="1" stop-color="#C24EDF"/>
</linearGradient>
<linearGradient id="paint2_linear_207_2" x1="132.415" y1="97.9606" x2="70.8125" y2="89.0117" gradientUnits="userSpaceOnUse">
<stop stop-color="#03B5AA"/>
<stop offset="1" stop-color="#C24EDF"/>
</linearGradient>
<linearGradient id="paint3_linear_207_2" x1="5.17188" y1="96.4871" x2="64.9672" y2="88.6966" gradientUnits="userSpaceOnUse">
<stop stop-color="#03B5AA"/>
<stop offset="1" stop-color="#C24EDF"/>
</linearGradient>
</defs>
</svg>
