<svg width="211" height="193" viewBox="0 0 211 193" fill="none" xmlns="http://www.w3.org/2000/svg">
<circle cx="104.514" cy="133.874" r="53" transform="rotate(83.9883 104.514 133.874)" fill="url(#paint0_linear_207_3)" stroke="#03B5AA" stroke-width="5"/>
<path d="M101.293 3.92744C80.6967 6.09651 65.7815 24.7745 67.9795 45.6459C70.1775 66.5173 88.6563 81.6785 109.253 79.5095C129.85 77.3404 144.765 58.6624 142.567 37.791C140.369 16.9196 121.89 1.75837 101.293 3.92744Z" fill="#03B5AA" stroke="url(#paint1_linear_207_3)" stroke-width="5"/>
<path d="M171.3 68.1957C169.137 66.9411 169.137 66.9415 169.137 66.9421L169.135 66.9447L169.129 66.9551L169.106 66.9959L169.013 67.1562C168.97 67.2293 168.918 67.3205 168.855 67.4294C168.796 67.5311 168.728 67.6481 168.652 67.7801C168.336 68.3262 167.874 69.1268 167.287 70.1458C166.115 72.1836 164.444 75.0948 162.454 78.5901C158.473 85.5794 153.209 94.9091 148.081 104.262C142.958 113.605 137.952 123.006 134.497 130.125C132.776 133.67 131.404 136.723 130.599 138.945C130.207 140.025 129.889 141.07 129.777 141.935C129.726 142.334 129.677 142.978 129.875 143.643C129.983 144.005 130.196 144.479 130.621 144.897C131.031 145.301 131.53 145.546 132.041 145.648C132.815 145.815 133.494 145.646 133.911 145.497C134.38 145.33 134.808 145.086 135.169 144.847C135.895 144.367 136.678 143.688 137.475 142.918C139.087 141.361 141.066 139.126 143.245 136.492C147.619 131.207 152.993 124.079 158.196 116.952C163.406 109.817 168.471 102.649 172.231 97.2667C174.112 94.5749 175.668 92.3284 176.753 90.7543C177.012 90.3793 177.244 90.0425 177.447 89.7469C177.991 89.8928 178.646 90.0658 179.384 90.2564C181.59 90.8252 184.565 91.5548 187.62 92.1902C190.654 92.8214 193.852 93.3777 196.473 93.5744C197.773 93.6719 199.046 93.6908 200.133 93.5454C200.678 93.4725 201.264 93.3473 201.819 93.1191C202.364 92.8947 203.034 92.5057 203.536 91.8135C204.381 90.6461 204.128 89.3874 203.869 88.7088C203.608 88.0237 203.17 87.4144 202.765 86.9267C201.929 85.9217 200.69 84.803 199.293 83.6678C196.463 81.3674 192.533 78.6375 188.604 76.0478C184.659 73.4475 180.652 70.947 177.635 69.0989C176.125 68.1742 174.861 67.4113 173.974 66.8792C173.53 66.6131 173.18 66.4045 172.941 66.2623C172.898 66.2371 172.86 66.214 172.824 66.193C172.76 66.1547 172.707 66.1234 172.667 66.0996L172.595 66.0575L172.577 66.0466L172.572 66.0437L172.571 66.0429C172.571 66.0427 172.57 66.0426 171.3 68.1957ZM171.3 68.1957L169.137 66.9411L170.401 64.7627L172.57 66.0426L171.3 68.1957ZM134.731 142.642C134.73 142.642 134.73 142.633 134.732 142.614C134.732 142.632 134.731 142.641 134.731 142.642Z" fill="#03B5AA" stroke="url(#paint2_linear_207_3)" stroke-width="5"/>
<path d="M37.4223 63.7321C39.5477 62.4159 39.5479 62.4162 39.5483 62.4168L39.5499 62.4193L39.5561 62.4293L39.5804 62.4686L39.6758 62.623C39.7092 62.6769 39.7489 62.7411 39.7948 62.8154C39.8647 62.9285 39.9489 63.065 40.0469 63.2237C40.3714 63.7496 40.8465 64.5205 41.4495 65.5017C42.6555 67.464 44.3731 70.2673 46.4205 73.6332C50.5146 80.3639 55.9307 89.349 61.2131 98.3581C66.4903 107.358 71.6539 116.416 75.2323 123.28C77.014 126.698 78.4416 129.645 79.2898 131.794C79.7014 132.837 80.0435 133.855 80.1749 134.705C80.2351 135.094 80.3021 135.739 80.1138 136.414C80.0107 136.783 79.8021 137.264 79.3764 137.691C78.9672 138.101 78.47 138.346 77.9675 138.451C77.207 138.623 76.5372 138.467 76.1256 138.329C75.6609 138.174 75.2345 137.944 74.8721 137.716C74.1444 137.26 73.3549 136.611 72.5491 135.873C70.92 134.382 68.9126 132.239 66.698 129.71C62.2536 124.637 56.7781 117.788 51.4717 110.939C46.1586 104.082 40.9887 97.191 37.1486 92.0163C35.2281 89.4284 33.6392 87.2684 32.5301 85.7549C32.2647 85.3928 32.0268 85.0677 31.8184 84.7825C31.2819 84.9313 30.6355 85.1081 29.9047 85.3032C27.7371 85.8819 24.8125 86.6259 21.8073 87.2795C18.8214 87.9289 15.6735 88.5074 13.0869 88.7301C11.8047 88.8406 10.548 88.8743 9.47262 88.7468C8.93358 88.6829 8.35349 88.5691 7.80336 88.3557C7.26437 88.1466 6.59294 87.7792 6.07851 87.1099C5.19791 85.9643 5.4209 84.6981 5.67168 84.0076C5.92134 83.3202 6.3502 82.7118 6.74237 82.231C7.55212 81.2383 8.75742 80.1336 10.1127 79.015C12.8608 76.7468 16.6863 74.0495 20.5117 71.4895C24.3531 68.9188 28.2585 66.4441 31.1991 64.6146C32.6706 63.6992 33.903 62.9437 34.7684 62.4166C35.2011 62.1531 35.5421 61.9465 35.7756 61.8056C35.8923 61.7351 35.9821 61.681 36.043 61.6444L36.1124 61.6026L36.1304 61.5918L36.1351 61.589L36.1364 61.5882C36.1367 61.588 36.137 61.5879 37.4223 63.7321ZM37.4223 63.7321L39.5477 62.4159L38.2504 60.321L36.137 61.5879L37.4223 63.7321ZM75.2406 135.53C75.241 135.53 75.2407 135.521 75.2381 135.5C75.2388 135.519 75.2401 135.53 75.2406 135.53Z" fill="#03B5AA" stroke="url(#paint3_linear_207_3)" stroke-width="5"/>
<defs>
<linearGradient id="paint0_linear_207_3" x1="104.514" y1="80.8741" x2="104.514" y2="186.874" gradientUnits="userSpaceOnUse">
<stop stop-color="#03B5AA"/>
<stop offset="1" stop-color="#C24EDF"/>
</linearGradient>
<linearGradient id="paint1_linear_207_3" x1="142.567" y1="37.791" x2="67.9795" y2="45.6459" gradientUnits="userSpaceOnUse">
<stop stop-color="#03B5AA"/>
<stop offset="1" stop-color="#C24EDF"/>
</linearGradient>
<linearGradient id="paint2_linear_207_3" x1="171.388" y1="132.695" x2="155.006" y2="72.6404" gradientUnits="userSpaceOnUse">
<stop stop-color="#03B5AA"/>
<stop offset="1" stop-color="#C24EDF"/>
</linearGradient>
<linearGradient id="paint3_linear_207_3" x1="38.8028" y1="126.293" x2="53.631" y2="67.8442" gradientUnits="userSpaceOnUse">
<stop stop-color="#03B5AA"/>
<stop offset="1" stop-color="#C24EDF"/>
</linearGradient>
</defs>
</svg>
