<svg width="159" height="193" viewBox="0 0 159 193" fill="none" xmlns="http://www.w3.org/2000/svg">
<circle cx="58.2593" cy="133.874" r="53" transform="rotate(83.9883 58.2593 133.874)" fill="url(#paint0_linear_207_4)" stroke="#03B5AA" stroke-width="5"/>
<path d="M55.0386 3.92744C34.4418 6.09651 19.5267 24.7745 21.7246 45.6459C23.9226 66.5173 42.4014 81.6785 62.9982 79.5095C83.595 77.3404 98.5102 58.6624 96.3122 37.791C94.1142 16.9196 75.6354 1.75837 55.0386 3.92744Z" fill="#03B5AA" stroke="url(#paint1_linear_207_4)" stroke-width="5"/>
<rect x="142.245" y="65.5" width="14" height="36" rx="5.5" fill="url(#paint2_linear_207_4)" stroke="#03B5AA" stroke-width="5"/>
<path d="M89.0346 144.23C90.6938 146.1 90.694 146.099 90.6946 146.099L90.6968 146.097L90.7056 146.089L90.7401 146.059L90.8758 145.938C90.9232 145.896 90.9797 145.846 91.0449 145.788C91.1443 145.699 91.2641 145.593 91.4034 145.469C91.8651 145.058 92.5412 144.455 93.4 143.688C95.1177 142.154 97.5665 139.96 100.493 137.322C106.344 132.047 114.107 124.99 121.75 117.873C129.384 110.762 136.927 103.563 142.322 98.0124C145.008 95.2485 147.221 92.8339 148.649 91.0181C149.342 90.1372 149.962 89.26 150.331 88.4835C150.5 88.1278 150.749 87.5285 150.762 86.8285C150.769 86.4449 150.707 85.9242 150.422 85.3937C150.147 84.8837 149.741 84.506 149.29 84.2617C148.61 83.8794 147.924 83.8368 147.49 83.8506C147 83.8661 146.526 83.9647 146.114 84.0787C145.286 84.3076 144.343 84.703 143.36 85.1786C141.372 86.1403 138.834 87.619 135.988 89.4066C130.276 92.994 123.068 97.9866 116.022 103.028C108.967 108.075 102.039 113.196 96.877 117.053C94.2955 118.982 92.1542 120.596 90.6579 121.728C90.2999 121.999 89.9789 122.243 89.6975 122.456C89.2262 122.16 88.6575 121.805 88.0132 121.409C86.1024 120.233 83.5136 118.683 80.8216 117.195C78.147 115.718 75.297 114.261 72.8826 113.307C71.6858 112.834 70.4915 112.441 69.4247 112.255C68.8899 112.162 68.3015 112.105 67.7133 112.151C67.137 112.197 66.3885 112.357 65.7038 112.851C64.5319 113.696 64.3827 114.973 64.4251 115.706C64.4673 116.437 64.7039 117.142 64.9418 117.715C65.4332 118.898 66.2714 120.302 67.2493 121.762C69.2323 124.723 72.1245 128.403 75.0559 131.952C77.9996 135.516 81.0322 139.006 83.3253 141.601C84.4727 142.9 85.437 143.977 86.115 144.729C86.4541 145.106 86.7217 145.402 86.9049 145.603C86.9965 145.704 87.067 145.782 87.1149 145.835L87.1694 145.894L87.1836 145.91L87.1873 145.914L87.1883 145.915C87.1886 145.915 87.1888 145.916 89.0346 144.23ZM89.0346 144.23L90.6938 146.1L88.8506 147.735L87.1888 145.916L89.0346 144.23ZM145.84 86.2789C145.841 86.2786 145.838 86.2876 145.829 86.3065C145.835 86.2886 145.84 86.2791 145.84 86.2789Z" fill="#03B5AA" stroke="url(#paint3_linear_207_4)" stroke-width="5"/>
<defs>
<linearGradient id="paint0_linear_207_4" x1="58.2593" y1="80.8741" x2="58.2593" y2="186.874" gradientUnits="userSpaceOnUse">
<stop stop-color="#03B5AA"/>
<stop offset="1" stop-color="#C24EDF"/>
</linearGradient>
<linearGradient id="paint1_linear_207_4" x1="96.3122" y1="37.791" x2="21.7246" y2="45.6459" gradientUnits="userSpaceOnUse">
<stop stop-color="#03B5AA"/>
<stop offset="1" stop-color="#C24EDF"/>
</linearGradient>
<linearGradient id="paint2_linear_207_4" x1="149.245" y1="63" x2="149.245" y2="104" gradientUnits="userSpaceOnUse">
<stop stop-color="#03B5AA"/>
<stop offset="1" stop-color="#C24EDF"/>
</linearGradient>
<linearGradient id="paint3_linear_207_4" x1="108.284" y1="84.6873" x2="105.742" y2="144.934" gradientUnits="userSpaceOnUse">
<stop stop-color="#03B5AA"/>
<stop offset="1" stop-color="#C24EDF"/>
</linearGradient>
</defs>
</svg>
