<svg width="200" height="195" viewBox="0 0 200 195" fill="none" xmlns="http://www.w3.org/2000/svg">
<ellipse cx="169.937" cy="21.1702" rx="19.9373" ry="19.1702" fill="url(#paint0_linear_207_5)" stroke="#03B5AA" stroke-width="3"/>
<path d="M171.097 29.4144C171.783 30.1418 171.783 30.1417 171.783 30.1415L171.784 30.1406L171.788 30.1369L171.803 30.1224L171.864 30.0655L172.098 29.844C172.303 29.65 172.603 29.3655 172.985 29.0033C173.747 28.2788 174.834 27.2432 176.133 25.9981C178.731 23.5082 182.175 20.1792 185.563 16.8249C188.948 13.4735 192.286 10.0861 194.666 7.48293C195.851 6.18626 196.821 5.0596 197.44 4.21947C197.742 3.81077 198.004 3.41258 198.154 3.06819C198.223 2.90977 198.319 2.65188 198.311 2.35865C198.308 2.19765 198.271 1.98403 198.143 1.77242C198.019 1.56968 197.846 1.42614 197.659 1.33753C197.376 1.19657 197.095 1.19015 196.911 1.20341C196.705 1.21835 196.502 1.26771 196.321 1.32473C195.958 1.43916 195.541 1.63004 195.1 1.86157C194.209 2.32887 193.072 3.04008 191.795 3.8994C189.233 5.62308 186.006 8.00929 182.853 10.416C179.697 12.8253 176.6 15.2656 174.293 17.1028C173.14 18.0216 172.183 18.79 171.515 19.3289C171.316 19.4896 171.142 19.6299 170.996 19.7477C170.755 19.6127 170.45 19.4433 170.097 19.2506C169.194 18.7576 167.971 18.1088 166.703 17.4908C165.442 16.8762 164.105 16.2775 162.983 15.8965C162.426 15.7074 161.88 15.5574 161.401 15.496C161.161 15.4653 160.905 15.4521 160.654 15.482C160.409 15.5113 160.099 15.5901 159.823 15.8025C159.352 16.1649 159.306 16.6934 159.338 17.0101C159.37 17.321 159.487 17.6216 159.606 17.8705C159.85 18.3837 160.259 18.9928 160.737 19.6307C161.706 20.9224 163.108 22.523 164.529 24.0666C165.956 25.6161 167.422 27.131 168.53 28.257C169.085 28.8205 169.55 29.2874 169.878 29.6138C170.041 29.777 170.171 29.9051 170.259 29.9925L170.36 30.0926L170.386 30.1184L170.393 30.1251L170.395 30.1269L170.395 30.1273C170.396 30.1275 170.396 30.1275 171.097 29.4144ZM171.097 29.4144L171.783 30.1418L171.082 30.8027L170.396 30.1275L171.097 29.4144ZM196.332 2.23787C196.332 2.23778 196.331 2.24114 196.329 2.24823C196.331 2.24151 196.332 2.23796 196.332 2.23787Z" fill="#03B5AA" stroke="url(#paint1_linear_207_5)" stroke-width="2"/>
<circle cx="91.5137" cy="135.874" r="53" transform="rotate(83.9883 91.5137 135.874)" fill="url(#paint2_linear_207_5)" stroke="#03B5AA" stroke-width="5"/>
<path d="M88.293 5.92744C67.6962 8.09651 52.781 26.7745 54.979 47.6459C57.177 68.5173 75.6558 83.6785 96.2526 81.5095C116.849 79.3404 131.765 60.6624 129.567 39.791C127.369 18.9196 108.89 3.75837 88.293 5.92744Z" fill="#03B5AA" stroke="url(#paint3_linear_207_5)" stroke-width="5"/>
<path d="M103.691 136.736C103.681 139.236 103.682 139.236 103.682 139.236L103.685 139.236L103.697 139.236L103.744 139.236L103.93 139.237C104.014 139.237 104.12 139.238 104.245 139.238C104.363 139.238 104.498 139.239 104.65 139.239C105.281 139.241 106.206 139.242 107.381 139.243C109.733 139.244 113.089 139.241 117.111 139.225C125.155 139.193 135.866 139.106 146.53 138.891C157.184 138.675 167.829 138.33 175.723 137.777C179.654 137.502 182.985 137.17 185.313 136.761C186.444 136.562 187.509 136.318 188.314 135.983C188.685 135.829 189.268 135.55 189.746 135.047C190.006 134.773 190.311 134.353 190.462 133.776C190.608 133.219 190.571 132.664 190.405 132.17C190.164 131.415 189.679 130.911 189.342 130.624C188.964 130.3 188.539 130.051 188.151 129.857C187.373 129.467 186.394 129.127 185.329 128.819C183.176 128.198 180.253 127.597 176.883 127.02C170.121 125.862 161.263 124.756 152.491 123.796C143.709 122.835 134.97 122.017 128.43 121.44C125.159 121.151 122.436 120.922 120.53 120.765C120.076 120.728 119.669 120.695 119.311 120.666C119.166 120.121 118.99 119.468 118.787 118.732C118.181 116.537 117.331 113.594 116.359 110.629C115.394 107.684 114.283 104.634 113.147 102.264C112.584 101.089 111.966 99.9752 111.298 99.1053C110.963 98.6692 110.562 98.223 110.088 97.8561C109.622 97.4954 108.95 97.1081 108.101 97.0185C106.667 96.8673 105.702 97.7141 105.243 98.2765C104.779 98.8443 104.469 99.5275 104.248 100.122C103.793 101.348 103.441 102.98 103.153 104.756C102.569 108.356 102.161 113.124 101.874 117.821C101.586 122.537 101.415 127.257 101.317 130.794C101.268 132.564 101.236 134.04 101.217 135.074C101.208 135.592 101.201 135.999 101.197 136.277C101.196 136.327 101.196 136.372 101.195 136.413C101.194 136.488 101.193 136.549 101.193 136.596L101.192 136.679L101.191 136.7L101.191 136.706L101.191 136.707C101.191 136.708 101.191 136.708 103.691 136.736ZM103.691 136.736L103.681 139.236L101.163 139.226L101.191 136.708L103.691 136.736ZM186.458 131.337C186.459 131.337 186.451 131.341 186.433 131.349C186.449 131.34 186.458 131.336 186.458 131.337Z" fill="#03B5AA" stroke="url(#paint4_linear_207_5)" stroke-width="5"/>
<path d="M87.6814 133.667C87.9389 136.154 87.9386 136.154 87.9379 136.154L87.9349 136.154L87.9232 136.155L87.8773 136.16L87.6967 136.179C87.6336 136.185 87.5585 136.193 87.4716 136.202C87.3394 136.215 87.1799 136.232 86.9943 136.251C86.3795 136.313 85.4785 136.405 84.3326 136.519C82.0408 136.749 78.769 137.072 74.8472 137.446C67.0048 138.195 56.5571 139.15 46.1462 139.975C35.7454 140.798 25.3424 141.495 17.6048 141.721C13.7522 141.834 10.4774 141.833 8.17369 141.659C7.056 141.575 5.99076 141.439 5.1688 141.187C4.79223 141.071 4.18205 140.85 3.65735 140.386C3.36983 140.132 3.02781 139.735 2.82974 139.166C2.63936 138.619 2.6352 138.064 2.76017 137.566C2.9374 136.807 3.36982 136.272 3.673 135.962C4.01536 135.611 4.40874 135.328 4.7714 135.101C5.49953 134.645 6.42773 134.218 7.44281 133.814C9.49505 132.999 12.2997 132.127 15.5406 131.237C22.0446 129.45 30.5957 127.51 39.073 125.722C47.5608 123.931 56.0169 122.284 62.3482 121.085C65.5147 120.486 68.1514 119.998 69.9971 119.66C70.4387 119.579 70.835 119.507 71.1825 119.444C71.2826 118.896 71.4054 118.237 71.5485 117.494C71.9731 115.291 72.5791 112.335 73.3016 109.346C74.0195 106.376 74.8717 103.291 75.7994 100.866C76.2593 99.6638 76.777 98.5182 77.3607 97.606C77.6533 97.1488 78.0087 96.6765 78.4407 96.2745C78.8639 95.8806 79.4873 95.4367 80.314 95.2656C81.729 94.9728 82.7711 95.7257 83.2831 96.2525C83.7928 96.777 84.1533 97.4283 84.4149 97.9909C84.955 99.1525 85.4235 100.719 85.839 102.426C86.6816 105.889 87.4405 110.507 88.0758 115.066C88.7138 119.644 89.2375 124.238 89.6013 127.682C89.7834 129.406 89.9257 130.844 90.0226 131.853C90.0711 132.357 90.1082 132.754 90.1333 133.025C90.1458 133.161 90.1553 133.266 90.1617 133.336L90.169 133.417L90.1709 133.438L90.1714 133.443L90.1715 133.445C90.1715 133.445 90.1716 133.446 87.6814 133.667ZM87.6814 133.667L87.9389 136.154L90.3899 135.9L90.1716 133.446L87.6814 133.667ZM6.57805 136.386C6.5775 136.386 6.58619 136.39 6.60575 136.397C6.58838 136.389 6.5786 136.386 6.57805 136.386Z" fill="#03B5AA" stroke="url(#paint5_linear_207_5)" stroke-width="5"/>
<defs>
<linearGradient id="paint0_linear_207_5" x1="169.937" y1="2" x2="169.937" y2="40.3404" gradientUnits="userSpaceOnUse">
<stop stop-color="#03B5AA"/>
<stop offset="1" stop-color="#C24EDF"/>
</linearGradient>
<linearGradient id="paint1_linear_207_5" x1="178.821" y1="2.19873" x2="178.821" y2="29.4144" gradientUnits="userSpaceOnUse">
<stop stop-color="#03B5AA"/>
<stop offset="1" stop-color="#C24EDF"/>
</linearGradient>
<linearGradient id="paint2_linear_207_5" x1="91.5137" y1="82.8741" x2="91.5137" y2="188.874" gradientUnits="userSpaceOnUse">
<stop stop-color="#03B5AA"/>
<stop offset="1" stop-color="#C24EDF"/>
</linearGradient>
<linearGradient id="paint3_linear_207_5" x1="129.567" y1="39.791" x2="54.979" y2="47.6459" gradientUnits="userSpaceOnUse">
<stop stop-color="#03B5AA"/>
<stop offset="1" stop-color="#C24EDF"/>
</linearGradient>
<linearGradient id="paint4_linear_207_5" x1="159.565" y1="104.514" x2="115.665" y2="148.647" gradientUnits="userSpaceOnUse">
<stop stop-color="#03B5AA"/>
<stop offset="1" stop-color="#C24EDF"/>
</linearGradient>
<linearGradient id="paint5_linear_207_5" x1="30.7815" y1="107.625" x2="76.912" y2="146.46" gradientUnits="userSpaceOnUse">
<stop stop-color="#03B5AA"/>
<stop offset="1" stop-color="#C24EDF"/>
</linearGradient>
</defs>
</svg>
