<svg width="94" height="29" viewBox="0 0 94 29" fill="none" xmlns="http://www.w3.org/2000/svg">
<path d="M16.1489 7.06C15.9329 6.644 15.6329 6.332 15.2489 6.124C14.8649 5.908 14.4209 5.8 13.9169 5.8C13.3649 5.8 12.8729 5.924 12.4409 6.172C12.0089 6.42 11.6689 6.772 11.4209 7.228C11.1809 7.684 11.0609 8.212 11.0609 8.812C11.0609 9.412 11.1809 9.944 11.4209 10.408C11.6689 10.864 12.0089 11.216 12.4409 11.464C12.8729 11.712 13.3649 11.836 13.9169 11.836C14.6609 11.836 15.2649 11.628 15.7289 11.212C16.1929 10.796 16.4769 10.232 16.5809 9.52H13.4489V8.428H18.0449V9.496C17.9569 10.144 17.7249 10.74 17.3489 11.284C16.9809 11.828 16.4969 12.264 15.8969 12.592C15.3049 12.912 14.6449 13.072 13.9169 13.072C13.1329 13.072 12.4169 12.892 11.7689 12.532C11.1209 12.164 10.6049 11.656 10.2209 11.008C9.84489 10.36 9.65689 9.628 9.65689 8.812C9.65689 7.996 9.84489 7.264 10.2209 6.616C10.6049 5.968 11.1209 5.464 11.7689 5.104C12.4249 4.736 13.1409 4.552 13.9169 4.552C14.8049 4.552 15.5929 4.772 16.2809 5.212C16.9769 5.644 17.4809 6.26 17.7929 7.06H16.1489ZM25.4541 9.532C25.4541 9.78 25.4381 10.004 25.4061 10.204H20.3541C20.3941 10.732 20.5901 11.156 20.9421 11.476C21.2941 11.796 21.7261 11.956 22.2381 11.956C22.9741 11.956 23.4941 11.648 23.7981 11.032H25.2741C25.0741 11.64 24.7101 12.14 24.1821 12.532C23.6621 12.916 23.0141 13.108 22.2381 13.108C21.6061 13.108 21.0381 12.968 20.5341 12.688C20.0381 12.4 19.6461 12 19.3581 11.488C19.0781 10.968 18.9381 10.368 18.9381 9.688C18.9381 9.008 19.0741 8.412 19.3461 7.9C19.6261 7.38 20.0141 6.98 20.5101 6.7C21.0141 6.42 21.5901 6.28 22.2381 6.28C22.8621 6.28 23.4181 6.416 23.9061 6.688C24.3941 6.96 24.7741 7.344 25.0461 7.84C25.3181 8.328 25.4541 8.892 25.4541 9.532ZM24.0261 9.1C24.0181 8.596 23.8381 8.192 23.4861 7.888C23.1341 7.584 22.6981 7.432 22.1781 7.432C21.7061 7.432 21.3021 7.584 20.9661 7.888C20.6301 8.184 20.4301 8.588 20.3661 9.1H24.0261ZM28.3964 7.504V11.164C28.3964 11.412 28.4524 11.592 28.5644 11.704C28.6844 11.808 28.8844 11.86 29.1644 11.86H30.0044V13H28.9244C28.3084 13 27.8364 12.856 27.5084 12.568C27.1804 12.28 27.0164 11.812 27.0164 11.164V7.504H26.2364V6.388H27.0164V4.744H28.3964V6.388H30.0044V7.504H28.3964ZM37.1304 13.084C36.5704 13.084 36.0664 12.988 35.6184 12.796C35.1704 12.596 34.8184 12.316 34.5624 11.956C34.3064 11.596 34.1784 11.176 34.1784 10.696H35.6424C35.6744 11.056 35.8144 11.352 36.0624 11.584C36.3184 11.816 36.6744 11.932 37.1304 11.932C37.6024 11.932 37.9704 11.82 38.2344 11.596C38.4984 11.364 38.6304 11.068 38.6304 10.708C38.6304 10.428 38.5464 10.2 38.3784 10.024C38.2184 9.848 38.0144 9.712 37.7664 9.616C37.5264 9.52 37.1904 9.416 36.7584 9.304C36.2144 9.16 35.7704 9.016 35.4264 8.872C35.0904 8.72 34.8024 8.488 34.5624 8.176C34.3224 7.864 34.2024 7.448 34.2024 6.928C34.2024 6.448 34.3224 6.028 34.5624 5.668C34.8024 5.308 35.1384 5.032 35.5704 4.84C36.0024 4.648 36.5024 4.552 37.0704 4.552C37.8784 4.552 38.5384 4.756 39.0504 5.164C39.5704 5.564 39.8584 6.116 39.9144 6.82H38.4024C38.3784 6.516 38.2344 6.256 37.9704 6.04C37.7064 5.824 37.3584 5.716 36.9264 5.716C36.5344 5.716 36.2144 5.816 35.9664 6.016C35.7184 6.216 35.5944 6.504 35.5944 6.88C35.5944 7.136 35.6704 7.348 35.8224 7.516C35.9824 7.676 36.1824 7.804 36.4224 7.9C36.6624 7.996 36.9904 8.1 37.4064 8.212C37.9584 8.364 38.4064 8.516 38.7504 8.668C39.1024 8.82 39.3984 9.056 39.6384 9.376C39.8864 9.688 40.0104 10.108 40.0104 10.636C40.0104 11.06 39.8944 11.46 39.6624 11.836C39.4384 12.212 39.1064 12.516 38.6664 12.748C38.2344 12.972 37.7224 13.084 37.1304 13.084ZM43.2206 7.504V11.164C43.2206 11.412 43.2766 11.592 43.3886 11.704C43.5086 11.808 43.7086 11.86 43.9886 11.86H44.8286V13H43.7486C43.1326 13 42.6606 12.856 42.3326 12.568C42.0046 12.28 41.8406 11.812 41.8406 11.164V7.504H41.0606V6.388H41.8406V4.744H43.2206V6.388H44.8286V7.504H43.2206ZM45.6335 9.664C45.6335 9 45.7695 8.412 46.0415 7.9C46.3215 7.388 46.6975 6.992 47.1695 6.712C47.6495 6.424 48.1775 6.28 48.7535 6.28C49.2735 6.28 49.7255 6.384 50.1095 6.592C50.5015 6.792 50.8135 7.044 51.0455 7.348V6.388H52.4255V13H51.0455V12.016C50.8135 12.328 50.4975 12.588 50.0975 12.796C49.6975 13.004 49.2415 13.108 48.7295 13.108C48.1615 13.108 47.6415 12.964 47.1695 12.676C46.6975 12.38 46.3215 11.972 46.0415 11.452C45.7695 10.924 45.6335 10.328 45.6335 9.664ZM51.0455 9.688C51.0455 9.232 50.9495 8.836 50.7575 8.5C50.5735 8.164 50.3295 7.908 50.0255 7.732C49.7215 7.556 49.3935 7.468 49.0415 7.468C48.6895 7.468 48.3615 7.556 48.0575 7.732C47.7535 7.9 47.5055 8.152 47.3135 8.488C47.1295 8.816 47.0375 9.208 47.0375 9.664C47.0375 10.12 47.1295 10.52 47.3135 10.864C47.5055 11.208 47.7535 11.472 48.0575 11.656C48.3695 11.832 48.6975 11.92 49.0415 11.92C49.3935 11.92 49.7215 11.832 50.0255 11.656C50.3295 11.48 50.5735 11.224 50.7575 10.888C50.9495 10.544 51.0455 10.144 51.0455 9.688ZM55.5903 7.348C55.7903 7.012 56.0543 6.752 56.3823 6.568C56.7183 6.376 57.1143 6.28 57.5703 6.28V7.696H57.2223C56.6863 7.696 56.2783 7.832 55.9983 8.104C55.7263 8.376 55.5903 8.848 55.5903 9.52V13H54.2223V6.388H55.5903V7.348ZM60.4237 7.504V11.164C60.4237 11.412 60.4797 11.592 60.5917 11.704C60.7117 11.808 60.9117 11.86 61.1917 11.86H62.0317V13H60.9517C60.3357 13 59.8637 12.856 59.5357 12.568C59.2077 12.28 59.0437 11.812 59.0437 11.164V7.504H58.2637V6.388H59.0437V4.744H60.4237V6.388H62.0317V7.504H60.4237ZM69.3526 9.532C69.3526 9.78 69.3366 10.004 69.3046 10.204H64.2526C64.2926 10.732 64.4886 11.156 64.8406 11.476C65.1926 11.796 65.6246 11.956 66.1366 11.956C66.8726 11.956 67.3926 11.648 67.6966 11.032H69.1726C68.9726 11.64 68.6086 12.14 68.0806 12.532C67.5606 12.916 66.9126 13.108 66.1366 13.108C65.5046 13.108 64.9366 12.968 64.4326 12.688C63.9366 12.4 63.5446 12 63.2566 11.488C62.9766 10.968 62.8366 10.368 62.8366 9.688C62.8366 9.008 62.9726 8.412 63.2446 7.9C63.5246 7.38 63.9126 6.98 64.4086 6.7C64.9126 6.42 65.4886 6.28 66.1366 6.28C66.7606 6.28 67.3166 6.416 67.8046 6.688C68.2926 6.96 68.6726 7.344 68.9446 7.84C69.2166 8.328 69.3526 8.892 69.3526 9.532ZM67.9246 9.1C67.9166 8.596 67.7366 8.192 67.3846 7.888C67.0326 7.584 66.5966 7.432 66.0766 7.432C65.6046 7.432 65.2006 7.584 64.8646 7.888C64.5286 8.184 64.3286 8.588 64.2646 9.1H67.9246ZM70.2428 9.664C70.2428 9 70.3788 8.412 70.6508 7.9C70.9308 7.388 71.3068 6.992 71.7788 6.712C72.2588 6.424 72.7908 6.28 73.3748 6.28C73.8068 6.28 74.2308 6.376 74.6468 6.568C75.0708 6.752 75.4068 7 75.6548 7.312V4.12H77.0348V13H75.6548V12.004C75.4308 12.324 75.1188 12.588 74.7188 12.796C74.3268 13.004 73.8748 13.108 73.3628 13.108C72.7868 13.108 72.2588 12.964 71.7788 12.676C71.3068 12.38 70.9308 11.972 70.6508 11.452C70.3788 10.924 70.2428 10.328 70.2428 9.664ZM75.6548 9.688C75.6548 9.232 75.5588 8.836 75.3668 8.5C75.1828 8.164 74.9388 7.908 74.6348 7.732C74.3308 7.556 74.0028 7.468 73.6508 7.468C73.2988 7.468 72.9708 7.556 72.6668 7.732C72.3628 7.9 72.1148 8.152 71.9228 8.488C71.7388 8.816 71.6468 9.208 71.6468 9.664C71.6468 10.12 71.7388 10.52 71.9228 10.864C72.1148 11.208 72.3628 11.472 72.6668 11.656C72.9788 11.832 73.3068 11.92 73.6508 11.92C74.0028 11.92 74.3308 11.832 74.6348 11.656C74.9388 11.48 75.1828 11.224 75.3668 10.888C75.5588 10.544 75.6548 10.144 75.6548 9.688ZM80.5476 4.66L80.3916 10.48H79.2516L79.0956 4.66H80.5476ZM79.8636 13.084C79.6156 13.084 79.4076 13 79.2396 12.832C79.0716 12.664 78.9876 12.456 78.9876 12.208C78.9876 11.96 79.0716 11.752 79.2396 11.584C79.4076 11.416 79.6156 11.332 79.8636 11.332C80.1036 11.332 80.3076 11.416 80.4756 11.584C80.6436 11.752 80.7276 11.96 80.7276 12.208C80.7276 12.456 80.6436 12.664 80.4756 12.832C80.3076 13 80.1036 13.084 79.8636 13.084Z" fill="#F5F5F5"/>
<path d="M93.7071 21.7071C94.0976 21.3166 94.0976 20.6834 93.7071 20.2929L87.3431 13.9289C86.9526 13.5384 86.3195 13.5384 85.9289 13.9289C85.5384 14.3195 85.5384 14.9526 85.9289 15.3431L91.5858 21L85.9289 26.6569C85.5384 27.0474 85.5384 27.6805 85.9289 28.0711C86.3195 28.4616 86.9526 28.4616 87.3431 28.0711L93.7071 21.7071ZM0 22L93 22V20L0 20L0 22Z" fill="#F5F5F5"/>
</svg>
