<svg width="66" height="24" viewBox="0 0 66 24" fill="none" xmlns="http://www.w3.org/2000/svg">
<ellipse cx="58.5872" cy="17.8646" rx="5.81816" ry="5.5943" stroke="url(#paint0_linear_39_199)"/>
<path d="M12.9833 22.7395H7.88803C7.48964 22.7395 7.19609 22.659 7.00737 22.498C6.83963 22.3168 6.75575 22.035 6.75575 21.6525V6.8274H2.13228C1.73388 6.8274 1.44033 6.74688 1.25162 6.58585C1.08387 6.40468 1 6.12288 1 5.74042V2.08698C1 1.70452 1.08387 1.43278 1.25162 1.27174C1.44033 1.09058 1.73388 1 2.13228 1H18.739C19.1374 1 19.4205 1.09058 19.5883 1.27174C19.777 1.43278 19.8713 1.70452 19.8713 2.08698V5.74042C19.8713 6.12288 19.777 6.40468 19.5883 6.58585C19.4205 6.74688 19.1374 6.8274 18.739 6.8274H14.1156V21.6525C14.1156 22.035 14.0212 22.3168 13.8325 22.498C13.6648 22.659 13.3817 22.7395 12.9833 22.7395ZM10.2784 20.0221H10.5929C10.5929 13.7726 10.5929 10.2688 10.5929 4.01938H17.0406V3.71744H3.8307V4.01938H10.2784V20.0221Z" stroke="url(#paint1_linear_39_199)"/>
<path d="M50.4709 1.86958V21.8699C50.4709 22.1759 50.3725 22.3933 50.1758 22.5221C50.001 22.667 49.7059 22.7395 49.2906 22.7395H44.5367C44.1215 22.7395 43.8155 22.667 43.6188 22.5221C43.4439 22.3933 43.3565 22.1759 43.3565 21.8699V1.86958C43.3565 1.56362 43.4439 1.34622 43.6188 1.2174C43.8155 1.07247 44.1215 1 44.5367 1H49.2906C49.7059 1 50.001 1.07247 50.1758 1.2174C50.3725 1.34622 50.4709 1.56362 50.4709 1.86958ZM46.7662 3.17395V20.5656H47.094V3.17395H46.7662Z" stroke="url(#paint2_linear_39_199)"/>
<path d="M65.004 12.3394C64.4594 12.0401 57.3799 17.8012 57.3799 17.8012C57.3799 17.8012 54.657 16.23 54.268 16.5293C53.879 16.8286 57.3799 20.2703 57.3799 20.2703C57.3799 20.2703 65.5486 12.5639 65.004 12.3394Z" fill="url(#paint3_linear_39_199)"/>
<path d="M38.2596 11.968C41.4587 11.968 44.052 14.5263 44.052 17.6822C44.052 20.8381 41.4587 23.3964 38.2596 23.3964C35.0604 23.3964 32.4671 20.8381 32.4671 17.6822C32.4671 14.5263 35.0604 11.968 38.2596 11.968ZM38.2596 13.1109C37.0306 13.1109 35.8519 13.5925 34.9829 14.4498C34.1138 15.3071 33.6256 16.4698 33.6256 17.6822C33.6256 18.8946 34.1138 20.0573 34.9829 20.9146C35.8519 21.7719 37.0306 22.2535 38.2596 22.2535C39.4886 22.2535 40.6672 21.7719 41.5363 20.9146C42.4053 20.0573 42.8935 18.8946 42.8935 17.6822C42.8935 16.4698 42.4053 15.3071 41.5363 14.4498C40.6672 13.5925 39.4886 13.1109 38.2596 13.1109ZM38.2596 14.8251C38.8693 14.8253 39.4634 15.0154 39.9572 15.3681C40.451 15.7209 40.8194 16.2184 41.0098 16.7898C41.2002 17.3612 41.203 17.9773 41.0178 18.5503C40.8325 19.1233 40.4687 19.6241 39.9781 19.9812C39.4875 20.3383 38.8951 20.5336 38.2854 20.5392C37.6758 20.5448 37.0798 20.3604 36.5826 20.0124C36.0853 19.6643 35.7121 19.1704 35.516 18.6008C35.32 18.0313 35.3112 17.4153 35.4908 16.8405C35.6263 17.1392 35.8617 17.3829 36.1575 17.5309C36.4534 17.6788 36.7918 17.7221 37.1161 17.6533C37.4404 17.5846 37.731 17.408 37.9391 17.1533C38.1473 16.8985 38.2604 16.5809 38.2596 16.2537C38.2596 15.9785 38.1792 15.7092 38.0278 15.4781C37.8764 15.2469 37.6606 15.0639 37.4063 14.9508C37.6828 14.8672 37.9704 14.8248 38.2596 14.8251Z" fill="url(#paint4_linear_39_199)"/>
<path d="M22.0563 11.0193C25.4717 11.0193 28.2402 13.7878 28.2402 17.2031C28.2402 20.6185 25.4717 23.387 22.0563 23.387C18.641 23.387 15.8725 20.6185 15.8725 17.2031C15.8725 13.7878 18.641 11.0193 22.0563 11.0193ZM22.0563 12.2561C20.7443 12.2561 19.486 12.7773 18.5582 13.705C17.6305 14.6328 17.1093 15.8911 17.1093 17.2031C17.1093 18.5152 17.6305 19.7735 18.5582 20.7012C19.486 21.629 20.7443 22.1502 22.0563 22.1502C23.3684 22.1502 24.6267 21.629 25.5545 20.7012C26.4822 19.7735 27.0034 18.5152 27.0034 17.2031C27.0034 15.8911 26.4822 14.6328 25.5545 13.705C24.6267 12.7773 23.3684 12.2561 22.0563 12.2561ZM22.0563 14.1112C22.7073 14.1115 23.3415 14.3171 23.8687 14.6989C24.3958 15.0806 24.7891 15.6191 24.9924 16.2374C25.1957 16.8557 25.1987 17.5225 25.0009 18.1426C24.8031 18.7627 24.4147 19.3046 23.8909 19.6911C23.3672 20.0775 22.7348 20.2888 22.084 20.2949C21.4331 20.301 20.7969 20.1015 20.266 19.7248C19.7352 19.3482 19.3367 18.8136 19.1274 18.1973C18.9182 17.5809 18.9087 16.9143 19.1005 16.2922C19.2451 16.6155 19.4964 16.8792 19.8123 17.0394C20.1281 17.1995 20.4894 17.2463 20.8356 17.1719C21.1819 17.0975 21.492 16.9064 21.7142 16.6307C21.9365 16.355 22.0572 16.0113 22.0563 15.6572C22.0564 15.3594 21.9705 15.0679 21.8089 14.8178C21.6473 14.5677 21.417 14.3696 21.1455 14.2472C21.4406 14.1568 21.7476 14.1109 22.0563 14.1112Z" fill="url(#paint5_linear_39_199)"/>
<defs>
<linearGradient id="paint0_linear_39_199" x1="58.5872" y1="12.2703" x2="58.5872" y2="23.4589" gradientUnits="userSpaceOnUse">
<stop stop-color="#C24EDF"/>
<stop offset="1" stop-color="#03B5AA"/>
</linearGradient>
<linearGradient id="paint1_linear_39_199" x1="10.4357" y1="1" x2="10.4357" y2="22.7395" gradientUnits="userSpaceOnUse">
<stop stop-color="#C24EDF"/>
<stop offset="1" stop-color="#03B5AA"/>
</linearGradient>
<linearGradient id="paint2_linear_39_199" x1="46.9137" y1="1" x2="46.9137" y2="22.7395" gradientUnits="userSpaceOnUse">
<stop stop-color="#C24EDF"/>
<stop offset="1" stop-color="#03B5AA"/>
</linearGradient>
<linearGradient id="paint3_linear_39_199" x1="59.634" y1="12.3281" x2="59.634" y2="20.2703" gradientUnits="userSpaceOnUse">
<stop stop-color="#C24EDF"/>
<stop offset="1" stop-color="#03B5AA"/>
</linearGradient>
<linearGradient id="paint4_linear_39_199" x1="38.2596" y1="11.968" x2="38.2596" y2="23.3964" gradientUnits="userSpaceOnUse">
<stop stop-color="#C24EDF"/>
<stop offset="1" stop-color="#03B5AA"/>
</linearGradient>
<linearGradient id="paint5_linear_39_199" x1="22.0563" y1="11.0193" x2="22.0563" y2="23.387" gradientUnits="userSpaceOnUse">
<stop stop-color="#C24EDF"/>
<stop offset="1" stop-color="#03B5AA"/>
</linearGradient>
</defs>
</svg>
