<svg width="24" height="37" viewBox="0 0 24 37" fill="none" xmlns="http://www.w3.org/2000/svg">
<path d="M11.7132 29.7816C10.6538 29.7816 9.74871 30.1327 8.99958 30.8332C8.25101 31.5332 7.87449 32.3807 7.87449 33.3801C7.87449 34.5061 8.25324 35.3897 9.00961 36.0327C9.7682 36.6756 10.6516 37 11.6614 37C12.6879 37 13.5835 36.6803 14.3499 36.046C15.1157 35.4089 15.4984 34.5212 15.4984 33.3795C15.4984 32.3802 15.1324 31.5326 14.4 30.8327C13.6676 30.1333 12.7731 29.7816 11.7115 29.7816H11.7132ZM22.534 5.00933C21.5593 3.46532 20.1663 2.23057 18.3913 1.3359C16.6262 0.449369 14.5704 0 12.279 0C9.81221 0 7.61661 0.538313 5.75632 1.60041C3.8938 2.66424 2.45458 4.02921 1.47877 5.65694C0.498491 7.2928 0 8.93797 0 10.5483C0 11.4069 0.343096 12.2085 1.01592 12.9294C1.69209 13.6549 2.53312 14.0217 3.51562 14.0217C5.19211 14.0217 6.33446 12.9951 6.91594 10.9813C7.44562 9.31584 8.09895 8.04563 8.85421 7.20386C9.56491 6.41092 10.7178 6.00864 12.279 6.00864C13.6258 6.00864 14.6885 6.40278 15.5318 7.2149C16.3622 8.01598 16.7666 8.97052 16.7666 10.1332C16.7666 10.7203 16.6351 11.2476 16.3717 11.7464C16.0915 12.2696 15.7423 12.7503 15.334 13.1782C14.9024 13.6293 14.19 14.3066 13.2164 15.1972C12.0824 16.2348 11.1673 17.1435 10.5012 17.898C9.80497 18.6822 9.24075 19.6042 8.81912 20.6373C8.39805 21.6773 8.18417 22.9184 8.18417 24.3281C8.18417 25.5309 8.50554 26.4622 9.1405 27.0964C9.76876 27.7243 10.5513 28.044 11.4675 28.044C13.2192 28.044 14.3198 27.0447 14.6473 25.1751C14.8133 24.3979 14.9391 23.8549 15.0227 23.5462C15.0984 23.2655 15.2082 22.9771 15.3491 22.6894C15.4861 22.4092 15.7028 22.0918 15.9952 21.7447C16.2998 21.3779 16.7114 20.9477 17.2161 20.4669C19.1036 18.7055 20.4354 17.4312 21.1739 16.6767C21.9359 15.8994 22.6003 14.9641 23.1489 13.8991C23.7137 12.8091 24 11.5249 24 10.0861C24.0011 8.26595 23.506 6.55626 22.5313 5.00701" fill="#DEE2FF"/>
</svg>
