<svg width="37" height="36" viewBox="0 0 37 36" fill="none" xmlns="http://www.w3.org/2000/svg">
<path d="M23.8539 18.4659C24.9852 17.4878 25.8927 16.2781 26.5146 14.9189C27.1366 13.5596 27.4585 12.0827 27.4585 10.5882C27.4585 7.78006 26.3415 5.0869 24.3533 3.10122C22.3651 1.11554 19.6685 0 16.8567 0C14.045 0 11.3484 1.11554 9.36018 3.10122C7.37198 5.0869 6.25501 7.78006 6.25501 10.5882C6.2681 12.0909 6.6065 13.5729 7.24698 14.9327C7.88747 16.2924 8.81489 17.4977 9.96562 18.4659C6.99743 19.8082 4.47915 21.9759 2.71188 24.7099C0.944602 27.4438 0.00312084 30.6282 0 33.8824C0 34.444 0.223393 34.9826 0.621034 35.3798C1.01868 35.7769 1.55799 36 2.12034 36C2.68269 36 3.22201 35.7769 3.61965 35.3798C4.01729 34.9826 4.24069 34.444 4.24069 33.8824C4.24069 30.5125 5.58104 27.2808 7.96689 24.8979C10.3527 22.5151 13.5886 21.1765 16.9627 21.1765C20.3368 21.1765 23.5728 22.5151 25.9586 24.8979C28.3445 27.2808 29.6848 30.5125 29.6848 33.8824C29.6848 34.444 29.9082 34.9826 30.3058 35.3798C30.7035 35.7769 31.2428 36 31.8052 36C32.3675 36 32.9068 35.7769 33.3045 35.3798C33.7021 34.9826 33.9255 34.444 33.9255 33.8824C33.9132 30.6165 32.956 27.4239 31.1691 24.6887C29.3822 21.9536 26.8419 19.7926 23.8539 18.4659ZM16.8567 16.9412C15.5986 16.9412 14.3688 16.5686 13.3227 15.8705C12.2767 15.1724 11.4614 14.1802 10.9799 13.0194C10.4985 11.8586 10.3725 10.5812 10.6179 9.34884C10.8634 8.11649 11.4692 6.9845 12.3588 6.09603C13.2484 5.20755 14.3818 4.60249 15.6158 4.35736C16.8497 4.11224 18.1287 4.23804 19.291 4.71888C20.4533 5.19972 21.4468 6.01399 22.1457 7.05873C22.8447 8.10347 23.2178 9.33174 23.2178 10.5882C23.2178 12.2731 22.5476 13.889 21.3547 15.0804C20.1617 16.2719 18.5438 16.9412 16.8567 16.9412ZM34.8797 6.35294C34.3173 6.35294 33.778 6.57605 33.3803 6.97319C32.9827 7.37032 32.7593 7.90895 32.7593 8.47059V12.7059C32.7593 13.2675 32.9827 13.8061 33.3803 14.2033C33.778 14.6004 34.3173 14.8235 34.8797 14.8235C35.442 14.8235 35.9813 14.6004 36.379 14.2033C36.7766 13.8061 37 13.2675 37 12.7059V8.47059C37 7.90895 36.7766 7.37032 36.379 6.97319C35.9813 6.57605 35.442 6.35294 34.8797 6.35294ZM33.2894 17.5553C32.9019 17.9611 32.6823 18.4981 32.6745 19.0588C32.6729 19.3375 32.7264 19.6138 32.8319 19.8718C32.9374 20.1298 33.0929 20.3645 33.2894 20.5624C33.4955 20.7494 33.7322 20.8998 33.9891 21.0071C34.2429 21.1191 34.5173 21.177 34.7948 21.177C35.0723 21.177 35.3468 21.1191 35.6006 21.0071C35.8637 20.912 36.1027 20.7602 36.3005 20.5626C36.4984 20.365 36.6503 20.1263 36.7456 19.8635C36.8643 19.6122 36.9224 19.3366 36.9152 19.0588C36.9176 18.6382 36.7946 18.2264 36.5618 17.8759C36.329 17.5254 35.9969 17.252 35.608 17.0907C35.219 16.9295 34.7907 16.8875 34.3778 16.9702C33.9649 17.053 33.586 17.2566 33.2894 17.5553Z" fill="#C1839F"/>
</svg>
