<svg width="40" height="46" viewBox="0 0 40 46" fill="none" xmlns="http://www.w3.org/2000/svg">
<path d="M5.54688 0.0625C4.12548 0.0625 2.7623 0.627147 1.75722 1.63222C0.752147 2.6373 0.1875 4.00048 0.1875 5.42188V37.5781C0.1875 40.5365 2.5885 42.9375 5.54688 42.9375H13.2246C12.4446 41.9928 11.77 40.9659 11.2125 39.875H5.54688C4.93771 39.875 4.35349 39.633 3.92274 39.2023C3.49199 38.7715 3.25 38.1873 3.25 37.5781V5.42188C3.25 4.81271 3.49199 4.22849 3.92274 3.79774C4.35349 3.36699 4.93771 3.125 5.54688 3.125H25.4531C26.0623 3.125 26.6465 3.36699 27.0773 3.79774C27.508 4.22849 27.75 4.81271 27.75 5.42188V15.4424C28.7861 15.5362 29.8114 15.7259 30.8125 16.0089V5.42188C30.8125 4.00048 30.2479 2.6373 29.2428 1.63222C28.2377 0.627147 26.8745 0.0625 25.4531 0.0625H5.54688ZM12.4375 21.5C12.4375 22.3122 12.1148 23.0912 11.5405 23.6655C10.9662 24.2398 10.1872 24.5625 9.375 24.5625C8.56277 24.5625 7.78382 24.2398 7.20949 23.6655C6.63516 23.0912 6.3125 22.3122 6.3125 21.5C6.3125 20.6878 6.63516 19.9088 7.20949 19.3345C7.78382 18.7602 8.56277 18.4375 9.375 18.4375C10.1872 18.4375 10.9662 18.7602 11.5405 19.3345C12.1148 19.9088 12.4375 20.6878 12.4375 21.5ZM26.2188 46C29.8738 46 33.3791 44.5481 35.9636 41.9636C38.5481 39.3791 40 35.8738 40 32.2188C40 28.5637 38.5481 25.0584 35.9636 22.4739C33.3791 19.8895 29.8738 18.4375 26.2188 18.4375C22.5637 18.4375 19.0584 19.8895 16.4739 22.4739C13.8895 25.0584 12.4375 28.5637 12.4375 32.2188C12.4375 35.8738 13.8895 39.3791 16.4739 41.9636C19.0584 44.5481 22.5637 46 26.2188 46ZM27.3029 39.4279C27.0153 39.7154 26.6254 39.8769 26.2188 39.8769C25.8121 39.8769 25.4222 39.7154 25.1346 39.4279C24.8471 39.1403 24.6856 38.7504 24.6856 38.3438C24.6856 37.9371 24.8471 37.5472 25.1346 37.2596L28.6473 33.75H20.0938C19.6876 33.75 19.2982 33.5887 19.011 33.3015C18.7238 33.0143 18.5625 32.6249 18.5625 32.2188C18.5625 31.8126 18.7238 31.4232 19.011 31.136C19.2982 30.8488 19.6876 30.6875 20.0938 30.6875H28.6473L25.1346 27.1779C24.8471 26.8903 24.6856 26.5004 24.6856 26.0938C24.6856 25.6871 24.8471 25.2972 25.1346 25.0096C25.4222 24.7221 25.8121 24.5606 26.2188 24.5606C26.6254 24.5606 27.0153 24.7221 27.3029 25.0096L33.4279 31.1346C33.7126 31.4201 33.8733 31.8064 33.875 32.2096V32.2279C33.8725 32.6271 33.7143 33.0095 33.434 33.2937L33.4248 33.3029L27.2998 39.4279H27.3029Z" fill="#F5F5F5"/>
</svg>
