<svg width="38" height="38" viewBox="0 0 38 38" fill="none" xmlns="http://www.w3.org/2000/svg">
<path d="M19.001 38C28.5514 38 36.618 30.0545 36.618 20.6475C36.618 11.2405 28.5514 3.29504 19.001 3.29504C9.45057 3.29504 1.38392 11.2405 1.38392 20.6475C1.38392 30.0545 9.45057 38 19.001 38ZM19.001 7.15115C26.4275 7.15115 32.7031 13.3325 32.7031 20.6475C32.7031 27.9626 26.4275 34.1439 19.001 34.1439C11.5744 34.1439 5.29882 27.9626 5.29882 20.6475C5.29882 13.3325 11.5744 7.15115 19.001 7.15115ZM29.3442 2.73012L32.1081 0L38 5.78416L35.2341 8.51621L29.3442 2.73012ZM5.85082 0.0057842L8.62649 2.7282L2.77371 8.51235L0 5.78802L5.85082 0.0057842Z" fill="#DBAD6A"/>
<path d="M17 13H21V23H17V13ZM17 25H21V29H17V25Z" fill="#DBAD6A"/>
</svg>
