<svg width="416" height="154" viewBox="0 0 416 154" fill="none" xmlns="http://www.w3.org/2000/svg">
<ellipse cx="372.845" cy="112.725" rx="37.1642" ry="35.7343" stroke="url(#paint0_linear_39_186)" stroke-width="10"/>
<path d="M81.5447 143.864H48.9981C46.4533 143.864 44.5782 143.349 43.3728 142.321C42.3013 141.164 41.7656 139.364 41.7656 136.921V42.2232H12.2326C9.68778 42.2232 7.81267 41.7089 6.60724 40.6803C5.53575 39.5231 5 37.723 5 35.28V11.9432C5 9.50022 5.53575 7.76442 6.60724 6.7358C7.81267 5.5786 9.68778 5 12.2326 5H118.31C120.855 5 122.663 5.5786 123.735 6.7358C124.94 7.76442 125.543 9.50022 125.543 11.9432V35.28C125.543 37.723 124.94 39.5231 123.735 40.6803C122.663 41.7089 120.855 42.2232 118.31 42.2232H88.7773V136.921C88.7773 139.364 88.1746 141.164 86.9691 142.321C85.8977 143.349 84.0895 143.864 81.5447 143.864ZM64.2669 126.506H66.2759C66.2759 86.5867 66.2759 64.2057 66.2759 24.2866H107.461V22.358H23.0814V24.2866H64.2669V126.506Z" stroke="url(#paint1_linear_39_186)" stroke-width="10"/>
<path d="M321.001 10.5546V138.309C321.001 140.264 320.373 141.652 319.117 142.475C318 143.401 316.115 143.864 313.462 143.864H283.096C280.444 143.864 278.489 143.401 277.232 142.475C276.116 141.652 275.557 140.264 275.557 138.309V10.5546C275.557 8.60017 276.116 7.21154 277.232 6.38864C278.489 5.46288 280.444 5 283.096 5H313.462C316.115 5 318 5.46288 319.117 6.38864C320.373 7.21154 321.001 8.60017 321.001 10.5546ZM297.337 18.8864V129.977H299.431V18.8864H297.337Z" stroke="url(#paint2_linear_39_186)" stroke-width="8"/>
<path d="M413.834 77.4326C410.355 75.5209 365.134 112.321 365.134 112.321C365.134 112.321 347.741 102.284 345.256 104.196C342.772 106.108 365.134 128.092 365.134 128.092C365.134 128.092 417.312 78.8663 413.834 77.4326Z" fill="url(#paint3_linear_39_186)"/>
<path d="M243 75.0592C263.435 75.0592 280 91.4003 280 111.559C280 131.718 263.435 148.059 243 148.059C222.565 148.059 206 131.718 206 111.559C206 91.4003 222.565 75.0592 243 75.0592ZM243 82.3592C235.15 82.3592 227.621 85.4356 222.07 90.9117C216.519 96.3878 213.4 103.815 213.4 111.559C213.4 119.304 216.519 126.731 222.07 132.207C227.621 137.683 235.15 140.759 243 140.759C250.85 140.759 258.379 137.683 263.93 132.207C269.481 126.731 272.6 119.304 272.6 111.559C272.6 103.815 269.481 96.3878 263.93 90.9117C258.379 85.4356 250.85 82.3592 243 82.3592ZM243 93.3092C246.895 93.3107 250.689 94.5246 253.844 96.7779C256.998 99.0313 259.351 102.209 260.567 105.859C261.784 109.509 261.802 113.444 260.618 117.104C259.435 120.765 257.111 123.963 253.977 126.244C250.843 128.525 247.06 129.773 243.165 129.808C239.271 129.844 235.464 128.667 232.288 126.443C229.112 124.22 226.728 121.065 225.475 117.427C224.223 113.789 224.167 109.854 225.314 106.183C226.18 108.091 227.683 109.647 229.573 110.593C231.463 111.538 233.624 111.814 235.696 111.375C237.768 110.936 239.623 109.808 240.953 108.181C242.283 106.553 243.005 104.524 243 102.434C243 100.677 242.486 98.9563 241.52 97.48C240.553 96.0037 239.174 94.8342 237.55 94.1122C239.316 93.5782 241.153 93.3075 243 93.3092Z" fill="url(#paint4_linear_39_186)"/>
<path d="M139.5 69C161.316 69 179 86.6842 179 108.5C179 130.316 161.316 148 139.5 148C117.684 148 100 130.316 100 108.5C100 86.6842 117.684 69 139.5 69ZM139.5 76.9C131.119 76.9 123.082 80.2293 117.155 86.1554C111.229 92.0816 107.9 100.119 107.9 108.5C107.9 116.881 111.229 124.918 117.155 130.845C123.082 136.771 131.119 140.1 139.5 140.1C147.881 140.1 155.918 136.771 161.845 130.845C167.771 124.918 171.1 116.881 171.1 108.5C171.1 100.119 167.771 92.0816 161.845 86.1554C155.918 80.2293 147.881 76.9 139.5 76.9ZM139.5 88.75C143.658 88.7516 147.709 90.0652 151.076 92.5038C154.444 94.9424 156.956 98.3816 158.254 102.331C159.553 106.281 159.572 110.54 158.309 114.501C157.045 118.462 154.564 121.924 151.219 124.392C147.873 126.861 143.834 128.21 139.676 128.249C135.519 128.288 131.455 127.013 128.064 124.608C124.673 122.202 122.128 118.787 120.791 114.85C119.454 110.913 119.394 106.655 120.619 102.682C121.543 104.746 123.148 106.431 125.166 107.454C127.183 108.477 129.491 108.776 131.702 108.3C133.914 107.825 135.895 106.605 137.315 104.844C138.734 103.082 139.506 100.887 139.5 98.625C139.501 96.7229 138.952 94.8612 137.92 93.2636C136.887 91.6659 135.416 90.4004 133.682 89.619C135.567 89.0411 137.528 88.7482 139.5 88.75Z" fill="url(#paint5_linear_39_186)"/>
<defs>
<linearGradient id="paint0_linear_39_186" x1="372.845" y1="76.9904" x2="372.845" y2="148.459" gradientUnits="userSpaceOnUse">
<stop stop-color="#C24EDF"/>
<stop offset="1" stop-color="#03B5AA"/>
</linearGradient>
<linearGradient id="paint1_linear_39_186" x1="65.2714" y1="5" x2="65.2714" y2="143.864" gradientUnits="userSpaceOnUse">
<stop stop-color="#C24EDF"/>
<stop offset="1" stop-color="#03B5AA"/>
</linearGradient>
<linearGradient id="paint2_linear_39_186" x1="298.279" y1="5" x2="298.279" y2="143.864" gradientUnits="userSpaceOnUse">
<stop stop-color="#C24EDF"/>
<stop offset="1" stop-color="#03B5AA"/>
</linearGradient>
<linearGradient id="paint3_linear_39_186" x1="379.532" y1="77.3606" x2="379.532" y2="128.092" gradientUnits="userSpaceOnUse">
<stop stop-color="#C24EDF"/>
<stop offset="1" stop-color="#03B5AA"/>
</linearGradient>
<linearGradient id="paint4_linear_39_186" x1="243" y1="75.0592" x2="243" y2="148.059" gradientUnits="userSpaceOnUse">
<stop stop-color="#C24EDF"/>
<stop offset="1" stop-color="#03B5AA"/>
</linearGradient>
<linearGradient id="paint5_linear_39_186" x1="139.5" y1="69" x2="139.5" y2="148" gradientUnits="userSpaceOnUse">
<stop stop-color="#C24EDF"/>
<stop offset="1" stop-color="#03B5AA"/>
</linearGradient>
</defs>
</svg>
